<mxfile host="app.diagrams.net" agent="Mozilla/5.0 (Windows NT 10.0; Win64; x64) AppleWebKit/537.36 (KHTML, like Gecko) Chrome/137.0.0.0 Safari/537.36" version="27.1.4">
  <diagram name="Page-1" id="srnxFx1ETwGNbWKc2Qa8">
    <mxGraphModel dx="1163" dy="583" grid="1" gridSize="10" guides="1" tooltips="1" connect="1" arrows="1" fold="1" page="1" pageScale="1" pageWidth="850" pageHeight="1100" math="0" shadow="0">
      <root>
        <mxCell id="0" />
        <mxCell id="1" parent="0" />
        <mxCell id="48PcaBrQhx-fV1F1njN2-58" value="&lt;font style=&quot;font-size: 15px;&quot; face=&quot;Times New Roman&quot;&gt;Mulai&lt;/font&gt;" style="ellipse;whiteSpace=wrap;html=1;" vertex="1" parent="1">
          <mxGeometry x="210" y="10" width="120" height="80" as="geometry" />
        </mxCell>
        <mxCell id="48PcaBrQhx-fV1F1njN2-59" value="" style="endArrow=classic;html=1;rounded=0;" edge="1" parent="1">
          <mxGeometry width="50" height="50" relative="1" as="geometry">
            <mxPoint x="269.64" y="90" as="sourcePoint" />
            <mxPoint x="270" y="110" as="targetPoint" />
          </mxGeometry>
        </mxCell>
        <mxCell id="48PcaBrQhx-fV1F1njN2-60" value="&lt;font face=&quot;Times New Roman&quot;&gt;&lt;span style=&quot;font-size: 15px;&quot;&gt;Pengumpulan dataset&lt;/span&gt;&lt;/font&gt;" style="shape=parallelogram;perimeter=parallelogramPerimeter;whiteSpace=wrap;html=1;fixedSize=1;" vertex="1" parent="1">
          <mxGeometry x="210" y="110" width="120" height="60" as="geometry" />
        </mxCell>
        <mxCell id="48PcaBrQhx-fV1F1njN2-61" value="&lt;font face=&quot;Times New Roman&quot;&gt;&lt;span style=&quot;font-size: 15px;&quot;&gt;Prapemprosesan data&lt;/span&gt;&lt;/font&gt;" style="rounded=0;whiteSpace=wrap;html=1;" vertex="1" parent="1">
          <mxGeometry x="182.5" y="190" width="175" height="50" as="geometry" />
        </mxCell>
        <mxCell id="48PcaBrQhx-fV1F1njN2-62" value="" style="edgeStyle=elbowEdgeStyle;elbow=vertical;html=1;rounded=1;curved=0;sourcePerimeterSpacing=0;targetPerimeterSpacing=0;startSize=6;endSize=6;entryX=0.5;entryY=0;entryDx=0;entryDy=0;exitX=0.5;exitY=1;exitDx=0;exitDy=0;" edge="1" parent="1" source="48PcaBrQhx-fV1F1njN2-61" target="48PcaBrQhx-fV1F1njN2-64">
          <mxGeometry relative="1" as="geometry">
            <mxPoint x="270" y="310" as="sourcePoint" />
            <mxPoint x="200.0000000000001" y="360" as="targetPoint" />
            <Array as="points">
              <mxPoint x="230" y="260" />
            </Array>
          </mxGeometry>
        </mxCell>
        <mxCell id="48PcaBrQhx-fV1F1njN2-63" value="" style="edgeStyle=elbowEdgeStyle;elbow=vertical;html=1;rounded=1;curved=0;sourcePerimeterSpacing=0;targetPerimeterSpacing=0;startSize=6;endSize=6;entryX=0.5;entryY=0;entryDx=0;entryDy=0;exitX=0.501;exitY=1.06;exitDx=0;exitDy=0;exitPerimeter=0;" edge="1" parent="1" source="48PcaBrQhx-fV1F1njN2-61" target="48PcaBrQhx-fV1F1njN2-65">
          <mxGeometry relative="1" as="geometry">
            <mxPoint x="270.0000000000001" y="310" as="sourcePoint" />
            <mxPoint x="340.0000000000001" y="360" as="targetPoint" />
            <Array as="points">
              <mxPoint x="300" y="260" />
            </Array>
          </mxGeometry>
        </mxCell>
        <mxCell id="48PcaBrQhx-fV1F1njN2-64" value="&lt;i style=&quot;font-family: &amp;quot;Times New Roman&amp;quot;; font-size: 15px;&quot;&gt;Training&amp;nbsp;&lt;/i&gt;&lt;span style=&quot;font-family: &amp;quot;Times New Roman&amp;quot;; font-size: 15px;&quot;&gt;Set&lt;/span&gt;" style="rounded=0;whiteSpace=wrap;html=1;" vertex="1" parent="1">
          <mxGeometry x="130" y="280" width="110" height="50" as="geometry" />
        </mxCell>
        <mxCell id="48PcaBrQhx-fV1F1njN2-65" value="&lt;i style=&quot;font-family: &amp;quot;Times New Roman&amp;quot;; font-size: 15px;&quot;&gt;Testing&amp;nbsp;&lt;/i&gt;&lt;span style=&quot;font-family: &amp;quot;Times New Roman&amp;quot;; font-size: 15px;&quot;&gt;Set&lt;/span&gt;" style="rounded=0;whiteSpace=wrap;html=1;" vertex="1" parent="1">
          <mxGeometry x="290" y="280" width="110" height="50" as="geometry" />
        </mxCell>
        <mxCell id="48PcaBrQhx-fV1F1njN2-66" value="&lt;span style=&quot;font-family: &amp;quot;Times New Roman&amp;quot;; font-size: 15px;&quot;&gt;Pengujian&lt;/span&gt;&lt;div&gt;&lt;span style=&quot;font-family: &amp;quot;Times New Roman&amp;quot;; font-size: 15px;&quot;&gt;Model&lt;/span&gt;&lt;/div&gt;" style="rounded=0;whiteSpace=wrap;html=1;" vertex="1" parent="1">
          <mxGeometry x="290" y="350" width="110" height="50" as="geometry" />
        </mxCell>
        <mxCell id="48PcaBrQhx-fV1F1njN2-67" value="" style="endArrow=classic;html=1;rounded=0;entryX=0.5;entryY=0;entryDx=0;entryDy=0;" edge="1" parent="1" target="48PcaBrQhx-fV1F1njN2-68">
          <mxGeometry width="50" height="50" relative="1" as="geometry">
            <mxPoint x="344.74" y="400" as="sourcePoint" />
            <mxPoint x="270" y="470" as="targetPoint" />
            <Array as="points">
              <mxPoint x="345" y="430" />
              <mxPoint x="270" y="430" />
            </Array>
          </mxGeometry>
        </mxCell>
        <mxCell id="48PcaBrQhx-fV1F1njN2-68" value="&lt;span style=&quot;font-family: &amp;quot;Times New Roman&amp;quot;; font-size: 15px;&quot;&gt;Evaluasi Model&lt;/span&gt;" style="rounded=0;whiteSpace=wrap;html=1;" vertex="1" parent="1">
          <mxGeometry x="215" y="450" width="110" height="50" as="geometry" />
        </mxCell>
        <mxCell id="48PcaBrQhx-fV1F1njN2-69" value="" style="endArrow=classic;html=1;rounded=0;" edge="1" parent="1">
          <mxGeometry width="50" height="50" relative="1" as="geometry">
            <mxPoint x="269.82" y="170" as="sourcePoint" />
            <mxPoint x="270.18" y="190" as="targetPoint" />
          </mxGeometry>
        </mxCell>
        <mxCell id="48PcaBrQhx-fV1F1njN2-70" value="&lt;span style=&quot;font-family: &amp;quot;Times New Roman&amp;quot;;&quot;&gt;&lt;font&gt;Validasi Hasil&lt;/font&gt;&lt;/span&gt;&lt;div&gt;&lt;span style=&quot;font-family: &amp;quot;Times New Roman&amp;quot;;&quot;&gt;&lt;font&gt;Evaluasi Model&lt;/font&gt;&lt;/span&gt;&lt;/div&gt;" style="rhombus;whiteSpace=wrap;html=1;" vertex="1" parent="1">
          <mxGeometry x="215" y="520" width="110" height="80" as="geometry" />
        </mxCell>
        <mxCell id="48PcaBrQhx-fV1F1njN2-71" value="&lt;span style=&quot;font-family: &amp;quot;Times New Roman&amp;quot;; font-size: 15px;&quot;&gt;Implementasi Model&lt;/span&gt;" style="rounded=0;whiteSpace=wrap;html=1;" vertex="1" parent="1">
          <mxGeometry x="215" y="620" width="110" height="50" as="geometry" />
        </mxCell>
        <mxCell id="48PcaBrQhx-fV1F1njN2-72" value="&lt;span style=&quot;font-family: &amp;quot;Times New Roman&amp;quot;; font-size: 15px;&quot;&gt;Selesai&lt;/span&gt;" style="ellipse;whiteSpace=wrap;html=1;" vertex="1" parent="1">
          <mxGeometry x="210" y="690" width="120" height="80" as="geometry" />
        </mxCell>
        <mxCell id="48PcaBrQhx-fV1F1njN2-73" value="" style="endArrow=classic;html=1;rounded=0;" edge="1" parent="1">
          <mxGeometry width="50" height="50" relative="1" as="geometry">
            <mxPoint x="344.82" y="330" as="sourcePoint" />
            <mxPoint x="345.18" y="350" as="targetPoint" />
          </mxGeometry>
        </mxCell>
        <mxCell id="48PcaBrQhx-fV1F1njN2-74" value="" style="endArrow=classic;html=1;rounded=0;" edge="1" parent="1">
          <mxGeometry width="50" height="50" relative="1" as="geometry">
            <mxPoint x="269.81" y="500" as="sourcePoint" />
            <mxPoint x="270.17" y="520" as="targetPoint" />
          </mxGeometry>
        </mxCell>
        <mxCell id="48PcaBrQhx-fV1F1njN2-75" value="" style="endArrow=classic;html=1;rounded=0;" edge="1" parent="1">
          <mxGeometry width="50" height="50" relative="1" as="geometry">
            <mxPoint x="269.81" y="600" as="sourcePoint" />
            <mxPoint x="270.17" y="620" as="targetPoint" />
          </mxGeometry>
        </mxCell>
        <mxCell id="48PcaBrQhx-fV1F1njN2-76" value="" style="endArrow=classic;html=1;rounded=0;" edge="1" parent="1">
          <mxGeometry width="50" height="50" relative="1" as="geometry">
            <mxPoint x="269.81" y="670" as="sourcePoint" />
            <mxPoint x="270.17" y="690" as="targetPoint" />
          </mxGeometry>
        </mxCell>
        <mxCell id="48PcaBrQhx-fV1F1njN2-77" value="" style="endArrow=classic;html=1;rounded=0;entryX=0;entryY=0.5;entryDx=0;entryDy=0;" edge="1" parent="1">
          <mxGeometry width="50" height="50" relative="1" as="geometry">
            <mxPoint x="240" y="374.77" as="sourcePoint" />
            <mxPoint x="290" y="375.1500000000001" as="targetPoint" />
          </mxGeometry>
        </mxCell>
        <mxCell id="48PcaBrQhx-fV1F1njN2-78" value="" style="endArrow=classic;html=1;rounded=0;entryX=0;entryY=0.5;entryDx=0;entryDy=0;" edge="1" parent="1" target="48PcaBrQhx-fV1F1njN2-64">
          <mxGeometry width="50" height="50" relative="1" as="geometry">
            <mxPoint x="215" y="475" as="sourcePoint" />
            <mxPoint x="165" y="474.62" as="targetPoint" />
            <Array as="points">
              <mxPoint x="90" y="475" />
              <mxPoint x="90" y="305" />
            </Array>
          </mxGeometry>
        </mxCell>
        <mxCell id="48PcaBrQhx-fV1F1njN2-79" value="&lt;font face=&quot;Times New Roman&quot;&gt;&lt;span style=&quot;font-size: 15px;&quot;&gt;Pembuatan Model&lt;/span&gt;&lt;/font&gt;" style="rounded=0;whiteSpace=wrap;html=1;" vertex="1" parent="1">
          <mxGeometry x="130" y="350" width="110" height="50" as="geometry" />
        </mxCell>
        <mxCell id="48PcaBrQhx-fV1F1njN2-80" value="" style="endArrow=classic;html=1;rounded=0;" edge="1" parent="1">
          <mxGeometry width="50" height="50" relative="1" as="geometry">
            <mxPoint x="184.82" y="330" as="sourcePoint" />
            <mxPoint x="185.18" y="350" as="targetPoint" />
          </mxGeometry>
        </mxCell>
        <mxCell id="48PcaBrQhx-fV1F1njN2-81" value="&lt;span style=&quot;font-family: &amp;quot;Times New Roman&amp;quot;;&quot;&gt;&lt;font&gt;Sesuai&lt;/font&gt;&lt;/span&gt;" style="text;html=1;align=center;verticalAlign=middle;whiteSpace=wrap;rounded=0;" vertex="1" parent="1">
          <mxGeometry x="280" y="500" width="35" height="20" as="geometry" />
        </mxCell>
        <mxCell id="48PcaBrQhx-fV1F1njN2-82" value="&lt;font face=&quot;Times New Roman&quot;&gt;Tidak&lt;/font&gt;" style="text;html=1;align=center;verticalAlign=middle;whiteSpace=wrap;rounded=0;" vertex="1" parent="1">
          <mxGeometry x="175" y="450" width="35" height="20" as="geometry" />
        </mxCell>
      </root>
    </mxGraphModel>
  </diagram>
</mxfile>
